<svg width="18" height="18" viewBox="0 0 18 18" fill="none" xmlns="http://www.w3.org/2000/svg">
<path d="M17.0686 1.76033L10.1936 16.7603C10.136 16.886 10.0385 16.989 9.91618 17.0533C9.79387 17.1177 9.65369 17.1396 9.51757 17.1158C9.38144 17.092 9.25705 17.0237 9.16385 16.9217C9.07065 16.8197 9.01389 16.6896 9.00245 16.5519L8.4212 9.57896L1.44826 8.99771C1.31054 8.98627 1.1805 8.92951 1.07847 8.8363C0.976439 8.7431 0.908176 8.61871 0.884356 8.48258C0.860535 8.34646 0.882501 8.20628 0.946817 8.08397C1.01113 7.96166 1.11417 7.86411 1.23982 7.80658L16.2398 0.93158C16.3558 0.878438 16.4852 0.862048 16.6108 0.884614C16.7363 0.907179 16.852 0.967618 16.9421 1.05781C17.0323 1.14801 17.0928 1.26365 17.1154 1.38919C17.1379 1.51474 17.1215 1.64418 17.0684 1.76014L17.0686 1.76033Z" fill="#080809"/>
</svg>
