<svg width="24" height="18" viewBox="0 0 24 18" fill="none" xmlns="http://www.w3.org/2000/svg">
<path d="M20.8223 17.9286C20.3721 17.9378 19.93 17.809 19.5552 17.5595C19.2762 17.3772 18.9501 17.2802 18.6169 17.2802C18.2836 17.2802 17.9576 17.3772 17.6786 17.5595C17.3 17.8006 16.8605 17.9286 16.4116 17.9286C15.9628 17.9286 15.5233 17.8006 15.1447 17.5595C14.8657 17.377 14.5396 17.2799 14.2062 17.2799C13.8729 17.2799 13.5468 17.377 13.2678 17.5595C12.8892 17.8006 12.4497 17.9286 12.0008 17.9286C11.552 17.9286 11.1125 17.8006 10.7339 17.5595C10.4551 17.3772 10.1292 17.28 9.79607 17.28C9.46295 17.28 9.13706 17.3772 8.85828 17.5595C8.51501 17.7876 8.11441 17.9144 7.70239 17.9253L7.67969 17.2767C7.98403 17.2695 8.27957 17.1732 8.52974 16.9997C8.90826 16.7587 9.34767 16.6307 9.79639 16.6307C10.2451 16.6307 10.6845 16.7587 11.063 16.9997C11.342 17.1821 11.668 17.2792 12.0013 17.2792C12.3346 17.2792 12.6606 17.1821 12.9396 16.9997C13.3183 16.7585 13.7579 16.6304 14.2069 16.6304C14.6559 16.6304 15.0955 16.7585 15.4742 16.9997C15.7531 17.1821 16.0792 17.2792 16.4124 17.2792C16.7457 17.2792 17.0718 17.1821 17.3507 16.9997C17.7294 16.7588 18.1689 16.6308 18.6177 16.6308C19.0665 16.6308 19.506 16.7588 19.8847 16.9997C20.1643 17.1825 20.4911 17.2799 20.8252 17.2799C21.1593 17.2799 21.4861 17.1825 21.7657 16.9997C22.1401 16.751 22.5815 16.6224 23.0309 16.6313V17.2799C22.6963 17.2708 22.3675 17.3686 22.0923 17.5592C21.7166 17.809 21.2734 17.9379 20.8223 17.9286V17.9286Z" fill="white"/>
<path d="M3.18197 17.9285C2.7319 17.9378 2.2898 17.809 1.91516 17.5594C1.64003 17.3686 1.31121 17.2707 0.976562 17.2798V16.6312C1.42673 16.6218 1.86896 16.7506 2.2437 17.0002C2.51867 17.191 2.84741 17.289 3.18197 17.2798C3.51668 17.289 3.84556 17.1909 4.12056 16.9999C4.4945 16.7504 4.936 16.6217 5.38543 16.6312C5.82396 16.6213 6.25524 16.7442 6.62272 16.9837L6.29548 17.5435C6.02705 17.3628 5.70885 17.2706 5.38543 17.2798C5.0521 17.2708 4.72462 17.3685 4.45072 17.5587C4.07566 17.809 3.63277 17.9381 3.18197 17.9285V17.9285Z" fill="white"/>
<path d="M20.8229 15.6579C20.3725 15.6671 19.93 15.5383 19.5548 15.2888C19.2756 15.1064 18.9493 15.0092 18.6158 15.0092C18.2822 15.0092 17.9559 15.1064 17.6767 15.2888C17.2981 15.5298 16.8586 15.6578 16.4099 15.6578C15.9611 15.6578 15.5216 15.5298 15.1431 15.2888C14.8642 15.1065 14.5383 15.0094 14.2051 15.0094C13.8719 15.0094 13.546 15.1065 13.2672 15.2888C12.8886 15.5299 12.4491 15.6579 12.0003 15.6579C11.5516 15.6579 11.1121 15.5299 10.7335 15.2888C10.4547 15.1065 10.1288 15.0094 9.79559 15.0094C9.46242 15.0094 9.13648 15.1065 8.85764 15.2888C8.48302 15.5384 8.0409 15.6672 7.59083 15.6579C7.14076 15.6672 6.69864 15.5384 6.32402 15.2888C6.04915 15.0981 5.72053 15.0001 5.38608 15.0093C5.05173 15.0002 4.72323 15.0981 4.44845 15.2888C4.07443 15.5381 3.63301 15.6669 3.18359 15.6579C2.73342 15.6672 2.29119 15.5384 1.91645 15.2888C1.64103 15.0977 1.31167 14.9997 0.976562 15.0093V14.3606C1.42663 14.3513 1.86873 14.4801 2.24337 14.7297C2.5185 14.9204 2.84732 15.0184 3.18197 15.0093C3.51631 15.0183 3.84481 14.9204 4.11959 14.7297C4.49362 14.4804 4.93503 14.3516 5.38445 14.3606C5.83486 14.351 6.27735 14.4799 6.65224 14.7297C6.92721 14.9205 7.25595 15.0184 7.59051 15.0093C7.92507 15.0184 8.2538 14.9205 8.52878 14.7297C8.90732 14.4886 9.34679 14.3605 9.79559 14.3605C10.2444 14.3605 10.6839 14.4886 11.0624 14.7297C11.3413 14.9121 11.6673 15.0092 12.0005 15.0092C12.3337 15.0092 12.6597 14.9121 12.9386 14.7297C13.3172 14.4886 13.7566 14.3605 14.2054 14.3605C14.6542 14.3605 15.0937 14.4886 15.4722 14.7297C15.7511 14.9121 16.0771 15.0092 16.4103 15.0092C16.7436 15.0092 17.0696 14.9121 17.3485 14.7297C17.7274 14.4887 18.1672 14.3607 18.6162 14.3607C19.0653 14.3607 19.5051 14.4887 19.884 14.7297C20.1634 14.912 20.4898 15.0091 20.8234 15.0091C21.157 15.0091 21.4835 14.912 21.7628 14.7297C22.1379 14.4803 22.5803 14.3515 23.0306 14.3606V15.0093C22.6953 14.9998 22.3658 15.0977 22.0901 15.2888C21.7152 15.5381 21.2731 15.6669 20.8229 15.6579V15.6579Z" fill="white"/>
<path d="M20.8189 13.388C20.3688 13.3972 19.9266 13.2684 19.5518 13.0189C19.2767 12.8282 18.9478 12.7303 18.6132 12.7394C18.3676 12.7309 18.1237 12.7833 17.9032 12.8918L17.6172 12.308C17.9268 12.1563 18.2685 12.0814 18.6132 12.0897C19.0639 12.0806 19.5066 12.2097 19.8816 12.4598C20.1613 12.6426 20.4881 12.7399 20.8222 12.7399C21.1562 12.7399 21.4831 12.6426 21.7627 12.4598C22.1369 12.2109 22.5782 12.0821 23.0276 12.0907V12.7394C22.693 12.7302 22.3642 12.828 22.089 13.0186C21.7132 13.2685 21.27 13.3974 20.8189 13.388Z" fill="white"/>
<path d="M16.4079 13.3879C15.9585 13.3973 15.517 13.2686 15.143 13.0191C14.8641 12.8366 14.538 12.7395 14.2046 12.7395C13.8713 12.7395 13.5452 12.8366 13.2662 13.0191C12.8876 13.2602 12.448 13.3882 11.9992 13.3882C11.5504 13.3882 11.1109 13.2602 10.7322 13.0191C10.4533 12.8367 10.1272 12.7396 9.79397 12.7396C9.4607 12.7396 9.13465 12.8367 8.8557 13.0191C8.48113 13.2683 8.03932 13.397 7.58954 13.3879C7.13947 13.3972 6.69736 13.2684 6.32272 13.0188C6.0476 12.8281 5.71878 12.7301 5.38413 12.7392C5.0508 12.7302 4.72332 12.828 4.44943 13.0181C4.07473 13.2682 3.63233 13.3972 3.18197 13.3879C2.73191 13.3972 2.2898 13.2684 1.91516 13.0188C1.64003 12.8281 1.31121 12.7301 0.976562 12.7392V12.0906C1.42673 12.0812 1.86896 12.21 2.2437 12.4597C2.51867 12.6504 2.84741 12.7484 3.18197 12.7392C3.51668 12.7484 3.84556 12.6503 4.12056 12.4593C4.4945 12.2098 4.936 12.0811 5.38543 12.0906C5.83549 12.0813 6.27759 12.2101 6.65224 12.4597C6.92721 12.6504 7.25595 12.7484 7.59051 12.7392C7.92516 12.7483 8.25398 12.6504 8.5291 12.4597C8.90772 12.2186 9.34724 12.0906 9.79608 12.0906C10.2449 12.0906 10.6844 12.2186 11.063 12.4597C11.342 12.642 11.668 12.7391 12.0013 12.7391C12.3346 12.7391 12.6606 12.642 12.9396 12.4597C13.3183 12.2184 13.7579 12.0903 14.2069 12.0903C14.6559 12.0903 15.0955 12.2184 15.4742 12.4597C15.7599 12.6518 16.0988 12.7495 16.4429 12.7389C16.468 12.7392 16.493 12.7379 16.5179 12.735L16.6041 13.3778C16.539 13.3854 16.4735 13.3888 16.4079 13.3879V13.3879Z" fill="white"/>
<path d="M20.8229 11.1174C20.3725 11.1266 19.93 10.9978 19.5548 10.7483C19.2756 10.5658 18.9493 10.4687 18.6158 10.4687C18.2822 10.4687 17.9559 10.5658 17.6767 10.7483C17.2981 10.9893 16.8586 11.1173 16.4099 11.1173C15.9611 11.1173 15.5216 10.9893 15.1431 10.7483C14.8642 10.5659 14.5383 10.4688 14.2051 10.4688C13.8719 10.4688 13.546 10.5659 13.2672 10.7483C12.8886 10.9893 12.4491 11.1174 12.0003 11.1174C11.5516 11.1174 11.1121 10.9893 10.7335 10.7483C10.4547 10.5659 10.1288 10.4688 9.79559 10.4688C9.46242 10.4688 9.13648 10.5659 8.85764 10.7483C8.48302 10.9979 8.0409 11.1267 7.59083 11.1174C7.14076 11.1267 6.69864 10.9979 6.32402 10.7483C6.04915 10.5575 5.72053 10.4596 5.38608 10.4687C5.05173 10.4596 4.72323 10.5576 4.44845 10.7483C4.07443 10.9976 3.63301 11.1264 3.18359 11.1174C2.73342 11.1267 2.29119 10.9979 1.91645 10.7483C1.64103 10.5572 1.31167 10.4592 0.976562 10.4687V9.82008C1.42663 9.81077 1.86873 9.93958 2.24337 10.1892C2.5185 10.3799 2.84732 10.4778 3.18197 10.4687C3.51631 10.4778 3.84481 10.3799 4.11959 10.1892C4.49362 9.93983 4.93503 9.81103 5.38445 9.82008C5.83486 9.81051 6.27735 9.93933 6.65224 10.1892C6.92721 10.3799 7.25595 10.4779 7.59051 10.4687C7.92507 10.4779 8.2538 10.3799 8.52878 10.1892C8.90732 9.94806 9.34679 9.82 9.79559 9.82C10.2444 9.82 10.6839 9.94806 11.0624 10.1892C11.3413 10.3715 11.6673 10.4687 12.0005 10.4687C12.3337 10.4687 12.6597 10.3715 12.9386 10.1892C13.3172 9.94806 13.7566 9.82 14.2054 9.82C14.6542 9.82 15.0937 9.94806 15.4722 10.1892C15.7511 10.3715 16.0771 10.4687 16.4103 10.4687C16.7436 10.4687 17.0696 10.3715 17.3485 10.1892C17.7274 9.94816 18.1672 9.82016 18.6162 9.82016C19.0653 9.82016 19.5051 9.94816 19.884 10.1892C20.1634 10.3715 20.4898 10.4686 20.8234 10.4686C21.157 10.4686 21.4835 10.3715 21.7628 10.1892C22.1379 9.93973 22.5803 9.81095 23.0306 9.82008V10.4687C22.6953 10.4592 22.3658 10.5572 22.0901 10.7483C21.7152 10.9976 21.2731 11.1264 20.8229 11.1174V11.1174Z" fill="white"/>
<path d="M16.1997 10.8423L15.5877 10.6276C15.7453 10.1748 15.8097 9.69472 15.777 9.21634C15.7442 8.73795 15.6151 8.27113 15.3973 7.84396L13.1695 3.48147C13.1475 3.43839 13.1354 3.39094 13.1341 3.34258C13.1328 3.29423 13.1424 3.2462 13.1621 3.20201C13.1818 3.15783 13.2111 3.1186 13.2479 3.08721C13.2847 3.05583 13.328 3.03307 13.3748 3.02061L17.8145 1.83682C17.9591 1.79899 18.083 1.70555 18.1592 1.57684C18.2353 1.44813 18.2575 1.29456 18.221 1.14954C18.1845 1.00453 18.0922 0.879793 17.9642 0.802481C17.8362 0.725169 17.6828 0.701533 17.5375 0.736716L12.1641 2.02104C12.0492 2.04818 11.9421 2.10141 11.8511 2.17659C11.7601 2.25177 11.6877 2.34689 11.6394 2.45457C11.591 2.56226 11.5681 2.67963 11.5725 2.79758C11.5768 2.91554 11.6082 3.03091 11.6643 3.13477L13.26 6.09909C13.3004 6.17443 13.3095 6.26271 13.2852 6.34471C13.2609 6.42671 13.2052 6.4958 13.1302 6.53693L11.0708 7.67206L10.7578 7.10385L12.5358 6.12374L11.0938 3.44223C10.9907 3.2508 10.9329 3.03822 10.925 2.82091C10.9172 2.6036 10.9594 2.38739 11.0484 2.18901C11.1375 1.99062 11.2709 1.81537 11.4385 1.67681C11.6061 1.53824 11.8033 1.44008 12.0149 1.3899L17.3857 0.105905C17.6984 0.0268991 18.0296 0.0753364 18.3066 0.240561C18.5835 0.405786 18.7835 0.674263 18.8625 0.986932C18.9415 1.2996 18.8931 1.63085 18.7279 1.9078C18.5626 2.18476 18.2942 2.38474 17.9815 2.46374L13.9294 3.54374L15.9752 7.5485C16.2328 8.05401 16.3855 8.60642 16.4241 9.17248C16.4627 9.73854 16.3863 10.3065 16.1997 10.8423V10.8423Z" fill="white"/>
<path d="M9.62876 7.73377L5.6875 9.90552L6.00039 10.4733L9.94165 8.3016L9.62876 7.73377Z" fill="white"/>
<path d="M19.1356 8.68493C18.6545 8.68493 18.1842 8.54227 17.7842 8.27499C17.3842 8.00771 17.0724 7.62782 16.8883 7.18335C16.7042 6.73888 16.656 6.2498 16.7499 5.77796C16.8437 5.30611 17.0754 4.87269 17.4156 4.53251C17.7557 4.19233 18.1892 3.96066 18.661 3.86681C19.1329 3.77295 19.6219 3.82112 20.0664 4.00523C20.5109 4.18933 20.8908 4.5011 21.158 4.90111C21.4253 5.30112 21.568 5.77141 21.568 6.2525C21.5673 6.89741 21.3108 7.51571 20.8548 7.97173C20.3988 8.42775 19.7805 8.68424 19.1356 8.68493V8.68493ZM19.1356 4.46872C18.7828 4.46872 18.4379 4.57333 18.1445 4.76934C17.8512 4.96534 17.6226 5.24393 17.4876 5.56988C17.3525 5.89582 17.3172 6.25448 17.386 6.6005C17.4549 6.94652 17.6248 7.26436 17.8742 7.51382C18.1237 7.76329 18.4415 7.93318 18.7876 8.00201C19.1336 8.07084 19.4922 8.03551 19.8182 7.9005C20.1441 7.76549 20.4227 7.53686 20.6187 7.24352C20.8147 6.95018 20.9193 6.6053 20.9193 6.2525C20.9187 5.7796 20.7306 5.32623 20.3962 4.99184C20.0618 4.65744 19.6085 4.46932 19.1356 4.46872V4.46872Z" fill="white"/>
</svg>
